<svg width="12" height="12" viewBox="0 0 12 12" fill="none" xmlns="http://www.w3.org/2000/svg">
<path d="M1.18909 2.12051C1.18909 1.39241 1.78105 0.800446 2.50915 0.800446H5.80932C6.53742 0.800446 7.12939 1.39241 7.12939 2.12051V6.08071H7.2944C8.29682 6.08071 9.10949 6.89338 9.10949 7.89581V8.55584C9.10949 8.83016 9.33019 9.05086 9.60451 9.05086C9.87884 9.05086 10.0995 8.83016 10.0995 8.55584V5.37943C9.53026 5.23298 9.10949 4.71527 9.10949 4.10061V2.78055L8.44945 2.12051C8.26795 1.939 8.26795 1.64199 8.44945 1.46048C8.63096 1.27897 8.92798 1.27897 9.10949 1.46048L10.7039 3.05487C10.9514 3.30238 11.0896 3.63859 11.0896 3.98923V8.5579C11.0896 9.37882 10.4254 10.043 9.60451 10.043C8.7836 10.043 8.11944 9.37882 8.11944 8.5579V7.89787C8.11944 7.44203 7.75023 7.07283 7.2944 7.07283H7.12939V10.043C7.49447 10.043 7.78942 10.3379 7.78942 10.703C7.78942 11.0681 7.49447 11.363 7.12939 11.363L1.18909 11.361C0.824005 11.361 0.529053 11.066 0.529053 10.7009C0.529053 10.3359 0.824005 10.0409 1.18909 10.0409V2.12051ZM2.50915 2.45053V4.43063C2.50915 4.61214 2.65766 4.76065 2.83917 4.76065H5.4793C5.66081 4.76065 5.80932 4.61214 5.80932 4.43063V2.45053C5.80932 2.26902 5.66081 2.12051 5.4793 2.12051H2.83917C2.65766 2.12051 2.50915 2.26902 2.50915 2.45053Z" fill="#0052FF"/>
</svg>
