<svg width="11" height="12" viewBox="0 0 11 12" fill="none" xmlns="http://www.w3.org/2000/svg">
<g clip-path="url(#clip0_55_5837)">
<path d="M0.749755 2.03979C0.749755 1.31169 1.34172 0.719727 2.06982 0.719727H5.36999C6.09809 0.719727 6.69006 1.31169 6.69006 2.03979V5.99999H6.85506C7.85749 5.99999 8.67016 6.81266 8.67016 7.81509V8.47512C8.67016 8.74945 8.89086 8.97015 9.16518 8.97015C9.43951 8.97015 9.66021 8.74945 9.66021 8.47512V5.29871C9.09093 5.15226 8.67016 4.63455 8.67016 4.01989V2.69983L8.01012 2.03979C7.82861 1.85828 7.82861 1.56127 8.01012 1.37976C8.19163 1.19825 8.48865 1.19825 8.67016 1.37976L10.2646 2.97415C10.5121 3.22167 10.6503 3.55787 10.6503 3.90851V8.47718C10.6503 9.2981 9.9861 9.96226 9.16518 9.96226C8.34426 9.96226 7.68011 9.2981 7.68011 8.47718V7.81715C7.68011 7.36131 7.3109 6.99211 6.85506 6.99211H6.69006V9.96226C7.05514 9.96226 7.35009 10.2572 7.35009 10.6223C7.35009 10.9874 7.05514 11.2823 6.69006 11.2823L0.749755 11.2803C0.384674 11.2803 0.0897217 10.9853 0.0897217 10.6202C0.0897217 10.2551 0.384674 9.9602 0.749755 9.9602V2.03979ZM2.06982 2.36981V4.34991C2.06982 4.53142 2.21833 4.67993 2.39984 4.67993H5.03997C5.22148 4.67993 5.36999 4.53142 5.36999 4.34991V2.36981C5.36999 2.1883 5.22148 2.03979 5.03997 2.03979H2.39984C2.21833 2.03979 2.06982 2.1883 2.06982 2.36981Z" fill="#F0B90B"/>
</g>
<defs>
<clipPath id="clip0_55_5837">
<rect width="10.5605" height="10.5605" fill="white" transform="translate(0.0897217 0.719727)"/>
</clipPath>
</defs>
</svg>
