<svg width="11" height="12" viewBox="0 0 11 12" fill="none" xmlns="http://www.w3.org/2000/svg">
<path d="M2.07991 1.87808L5.32067 0.0596924L8.56144 1.87808L7.37338 2.55132L5.32067 1.40286L3.27127 2.55132L2.07991 1.87808ZM8.56144 4.175L7.37338 3.50177L5.32067 4.65023L3.27127 3.50177L2.07991 4.175V5.51817L4.12601 6.66663V8.96024L5.32067 9.63348L6.51203 8.96024V6.66663L8.56144 5.51817V4.175ZM8.56144 7.81509V6.46862L7.37338 7.14185V8.48502L8.56144 7.81509ZM9.40958 8.29031L7.36018 9.43547V10.7819L10.6009 8.96024V5.32346L9.40958 5.99339V8.29031ZM8.21822 3.02654L9.40628 3.69978V5.04295L10.6009 4.37301V3.02654L9.40958 2.35331L8.21822 3.02984V3.02654ZM4.12601 9.92389V11.2671L5.32067 11.9403L6.51203 11.2671V9.92719L5.32067 10.5971L4.12931 9.92389H4.12601ZM2.07991 7.81179L3.26797 8.48502V7.14185L2.07991 6.46862V7.81509V7.81179ZM4.12601 3.02654L5.32067 3.69978L6.51203 3.02654L5.32067 2.35331L4.12931 3.02984L4.12601 3.02654ZM1.23177 3.69978L2.42313 3.02654L1.23507 2.35331L0.0404053 3.02984V4.37631L1.23177 5.04625V3.69978ZM1.23177 5.99339L0.0404053 5.32346V8.96024L3.28117 10.7819V9.43217L1.23507 8.28701V5.99009L1.23177 5.99339Z" fill="#F0B90B"/>
</svg>
