<svg width="12" height="12" viewBox="0 0 12 12" fill="none" xmlns="http://www.w3.org/2000/svg">
<g clip-path="url(#clip0_55_5856)">
<path d="M1.18921 2.12051C1.18921 1.39241 1.78118 0.800446 2.50928 0.800446H5.80944C6.53754 0.800446 7.12951 1.39241 7.12951 2.12051V6.08071H7.29452C8.29694 6.08071 9.10961 6.89338 9.10961 7.89581V8.55584C9.10961 8.83016 9.33031 9.05086 9.60464 9.05086C9.87896 9.05086 10.0997 8.83016 10.0997 8.55584V5.37943C9.53038 5.23298 9.10961 4.71527 9.10961 4.10061V2.78055L8.44958 2.12051C8.26807 1.939 8.26807 1.64199 8.44958 1.46048C8.63109 1.27897 8.9281 1.27897 9.10961 1.46048L10.704 3.05487C10.9515 3.30238 11.0897 3.63859 11.0897 3.98923V8.5579C11.0897 9.37882 10.4256 10.043 9.60464 10.043C8.78372 10.043 8.11956 9.37882 8.11956 8.5579V7.89787C8.11956 7.44203 7.75035 7.07283 7.29452 7.07283H7.12951V10.043C7.49459 10.043 7.78954 10.3379 7.78954 10.703C7.78954 11.0681 7.49459 11.363 7.12951 11.363L1.18921 11.361C0.824127 11.361 0.529175 11.066 0.529175 10.7009C0.529175 10.3359 0.824127 10.0409 1.18921 10.0409V2.12051ZM2.50928 2.45053V4.43063C2.50928 4.61214 2.65778 4.76065 2.83929 4.76065H5.47943C5.66093 4.76065 5.80944 4.61214 5.80944 4.43063V2.45053C5.80944 2.26902 5.66093 2.12051 5.47943 2.12051H2.83929C2.65778 2.12051 2.50928 2.26902 2.50928 2.45053Z" fill="#627EEA"/>
</g>
<defs>
<clipPath id="clip0_55_5856">
<rect width="10.5605" height="10.5605" fill="white" transform="translate(0.529175 0.719727)"/>
</clipPath>
</defs>
</svg>
