<svg width="27" height="28" viewBox="0 0 27 28" fill="none" xmlns="http://www.w3.org/2000/svg">
<path fill-rule="evenodd" clip-rule="evenodd" d="M26.9624 15.0153C26.9873 14.6801 27 14.3415 27 14C27 12.7281 26.8241 11.4972 26.4953 10.3305L25.7822 11.5385C25.4739 12.0609 25.4859 12.7123 25.8133 13.2229L26.9624 15.0153ZM25.3913 20.3967C23.1115 24.6259 18.6414 27.5 13.5 27.5C6.04416 27.5 0 21.4558 0 14C0 6.54416 6.04416 0.5 13.5 0.5C17.7619 0.5 21.5626 2.47493 24.0367 5.55954L23.73 6.1635C23.1387 7.32812 21.4787 7.33831 20.8731 6.18104L20.5379 5.54054C20.2606 5.01065 19.712 4.67857 19.114 4.67857H17.3757C16.1225 4.67857 15.3514 6.04929 16.0023 7.12032L18.5687 11.3436C18.8774 11.8517 18.8804 12.4887 18.5766 12.9997L15.5871 18.0269C14.95 19.0982 15.722 20.4555 16.9684 20.4555H18.5125C19.1131 20.4555 19.6636 20.1206 19.9397 19.5872L20.7062 18.1065C21.2941 16.9711 22.9082 16.9434 23.5346 18.0581L24.4211 19.6357C24.6333 20.0133 24.9852 20.2836 25.3913 20.3967Z" fill="white"/>
</svg>
