<svg width="24" height="24" viewBox="0 0 24 24" fill="none" xmlns="http://www.w3.org/2000/svg">
<path d="M12 23L2.5 17.5L2.5 6.50001L12 1.00001L21.5 6.50002L21.5 17.5L12 23ZM12 9.00001C11.2044 9.00001 10.4413 9.31608 9.87868 9.87869C9.31607 10.4413 9 11.2044 9 12C9 12.7957 9.31607 13.5587 9.87868 14.1213C10.4413 14.6839 11.2044 15 12 15C12.7957 15 13.5587 14.6839 14.1213 14.1213C14.6839 13.5587 15 12.7957 15 12C15 11.2044 14.6839 10.4413 14.1213 9.87869C13.5587 9.31609 12.7957 9.00001 12 9.00001Z" fill="white"/>
</svg>
