<svg width="16" height="16" viewBox="0 0 16 16" fill="none" xmlns="http://www.w3.org/2000/svg">
<g id="logos:telegram" clip-path="url(#clip0_2006_15614)">
<path id="Vector" d="M8 0C5.87875 0 3.8425 0.843375 2.34375 2.34313C0.843465 3.84348 0.000429311 5.87823 0 8C0 10.1209 0.84375 12.1571 2.34375 13.6569C3.8425 15.1566 5.87875 16 8 16C10.1213 16 12.1575 15.1566 13.6562 13.6569C15.1562 12.1571 16 10.1209 16 8C16 5.87913 15.1562 3.84288 13.6562 2.34313C12.1575 0.843375 10.1213 0 8 0Z" fill="url(#paint0_linear_2006_15614)"/>
<path id="Vector_2" d="M3.62107 7.91504C5.95357 6.89904 7.50857 6.22921 8.28607 5.90554C10.5086 4.98141 10.9698 4.82091 11.2711 4.81548C11.3373 4.81441 11.4848 4.83079 11.5811 4.9086C11.6611 4.97423 11.6836 5.06298 11.6948 5.12529C11.7048 5.18754 11.7186 5.32941 11.7073 5.44016C11.5873 6.70516 11.0661 9.77491 10.8011 11.1918C10.6898 11.7913 10.4686 11.9923 10.2548 12.0119C9.78982 12.0547 9.43732 11.7049 8.98732 11.41C8.28357 10.9484 7.88607 10.6612 7.20232 10.2108C6.41232 9.69029 6.92482 9.40416 7.37482 8.93666C7.49232 8.81429 9.53982 6.95241 9.57857 6.78354C9.58357 6.76241 9.58857 6.68366 9.54107 6.64216C9.49482 6.60054 9.42607 6.61479 9.37607 6.62604C9.30482 6.64204 8.18107 7.38554 6.00107 8.85641C5.68232 9.07566 5.39357 9.18254 5.13357 9.17691C4.84857 9.17079 4.29857 9.01541 3.88982 8.88266C3.38982 8.71979 2.99107 8.63366 3.02607 8.35704C3.04357 8.21304 3.24232 8.06566 3.62107 7.91504Z" fill="white"/>
</g>
<defs>
<linearGradient id="paint0_linear_2006_15614" x1="800" y1="0" x2="800" y2="1600" gradientUnits="userSpaceOnUse">
<stop stop-color="#2AABEE"/>
<stop offset="1" stop-color="#229ED9"/>
</linearGradient>
<clipPath id="clip0_2006_15614">
<rect width="16" height="16" fill="white"/>
</clipPath>
</defs>
</svg>
